<svg width="25" height="24" viewBox="0 0 25 24" fill="none" xmlns="http://www.w3.org/2000/svg">
<path d="M22.2646 0H3.42391C2.74253 0 2.08905 0.270918 1.60723 0.753154C1.12542 1.23539 0.854736 1.88944 0.854736 2.57143L0.854736 21.4286C0.854736 22.1106 1.12542 22.7646 1.60723 23.2468C2.08905 23.7291 2.74253 24 3.42391 24H10.7702V15.8405H7.39811V12H10.7702V9.07286C10.7702 5.74339 12.7506 3.90429 15.7838 3.90429C17.2365 3.90429 18.7555 4.16357 18.7555 4.16357V7.43143H17.0818C15.4327 7.43143 14.9183 8.45571 14.9183 9.50625V12H18.5997L18.011 15.8405H14.9183V24H22.2646C22.9459 24 23.5994 23.7291 24.0812 23.2468C24.5631 22.7646 24.8337 22.1106 24.8337 21.4286V2.57143C24.8337 1.88944 24.5631 1.23539 24.0812 0.753154C23.5994 0.270918 22.9459 0 22.2646 0V0Z" fill="#18EA39"/>
</svg>
