<svg width="25" height="24" viewBox="0 0 25 24" fill="none" xmlns="http://www.w3.org/2000/svg">
<path d="M22.1928 0H3.3522C1.9338 0 0.78302 1.15179 0.78302 2.57143V21.4286C0.78302 22.8482 1.9338 24 3.3522 24H22.1928C23.6112 24 24.762 22.8482 24.762 21.4286V2.57143C24.762 1.15179 23.6112 0 22.1928 0ZM15.6254 20.5554C15.1758 20.6357 15.0098 20.3571 15.0098 20.1268C15.0098 19.8375 15.0206 18.3589 15.0206 17.1643C15.0206 16.3286 14.7422 15.7982 14.4157 15.5196C16.3961 15.3 18.4836 15.0268 18.4836 11.6036C18.4836 10.6286 18.1357 10.1411 17.5683 9.51429C17.6593 9.28393 17.9644 8.33571 17.4773 7.10357C16.7333 6.87321 15.0313 8.0625 15.0313 8.0625C14.3247 7.86429 13.5593 7.7625 12.8046 7.7625C12.0499 7.7625 11.2845 7.86429 10.578 8.0625C10.578 8.0625 8.87593 6.87321 8.13194 7.10357C7.64487 8.33036 7.94461 9.27857 8.04095 9.51429C7.47359 10.1411 7.20597 10.6286 7.20597 11.6036C7.20597 15.0107 9.20243 15.3 11.1828 15.5196C10.9259 15.75 10.6958 16.1464 10.6155 16.7143C10.107 16.9446 8.80635 17.3411 8.03024 15.9696C7.54317 15.1232 6.66537 15.0536 6.66537 15.0536C5.79827 15.0429 6.60649 15.6 6.60649 15.6C7.18456 15.8679 7.59134 16.8964 7.59134 16.8964C8.11053 18.4875 10.5941 17.9518 10.5941 17.9518C10.5941 18.6964 10.6048 19.9071 10.6048 20.1268C10.6048 20.3571 10.4442 20.6357 9.98924 20.5554C6.45662 19.3714 3.98379 16.0071 3.98379 12.075C3.98379 7.15714 7.74121 3.42321 12.6548 3.42321C17.5683 3.42321 21.5505 7.15714 21.5505 12.075C21.5559 16.0071 19.158 19.3768 15.6254 20.5554ZM10.3746 17.2821C10.2729 17.3036 10.1766 17.2607 10.1659 17.1911C10.1552 17.1107 10.2248 17.0411 10.3264 17.0196C10.4281 17.0089 10.5245 17.0518 10.5352 17.1214C10.5513 17.1911 10.4817 17.2607 10.3746 17.2821ZM9.86614 17.2339C9.86614 17.3036 9.78585 17.3625 9.6788 17.3625C9.56105 17.3732 9.48076 17.3143 9.48076 17.2339C9.48076 17.1643 9.56105 17.1054 9.6681 17.1054C9.76979 17.0946 9.86614 17.1536 9.86614 17.2339ZM9.13285 17.175C9.11144 17.2446 9.00439 17.2768 8.9134 17.2446C8.8117 17.2232 8.74212 17.1429 8.76353 17.0732C8.78494 17.0036 8.89199 16.9714 8.98298 16.9929C9.09003 17.025 9.15961 17.1054 9.13285 17.175ZM8.4745 16.8857C8.42633 16.9446 8.32463 16.9339 8.24434 16.8536C8.16406 16.7839 8.14265 16.6821 8.19617 16.6339C8.24434 16.575 8.34604 16.5857 8.42633 16.6661C8.49591 16.7357 8.52267 16.8429 8.4745 16.8857ZM7.98742 16.3982C7.93925 16.4304 7.84826 16.3982 7.78938 16.3179C7.73051 16.2375 7.73051 16.1464 7.78938 16.1089C7.84826 16.0607 7.93925 16.0982 7.98742 16.1786C8.0463 16.2589 8.0463 16.3554 7.98742 16.3982V16.3982ZM7.63952 15.8786C7.59134 15.9268 7.51106 15.9 7.45218 15.8464C7.3933 15.7768 7.3826 15.6964 7.43077 15.6589C7.47894 15.6107 7.55923 15.6375 7.6181 15.6911C7.67698 15.7607 7.68769 15.8411 7.63952 15.8786ZM7.2809 15.4821C7.25949 15.5304 7.18991 15.5411 7.13103 15.5036C7.06145 15.4714 7.02933 15.4125 7.05074 15.3643C7.07215 15.3321 7.13103 15.3161 7.20061 15.3429C7.2702 15.3804 7.30231 15.4393 7.2809 15.4821Z" fill="#18EA39"/>
</svg>
