<svg width="25" height="28" viewBox="0 0 25 28" fill="none" xmlns="http://www.w3.org/2000/svg">
<g clip-path="url(#clip0_0_41)">
<path d="M23.0851 2.00006H2.52628C1.58425 2.00006 0.818848 2.77685 0.818848 3.73042V24.2697C0.818848 25.2233 1.58425 26.0001 2.52628 26.0001H23.0851C24.0271 26.0001 24.7978 25.2233 24.7978 24.2697V3.73042C24.7978 2.77685 24.0271 2.00006 23.0851 2.00006ZM8.06607 22.5715H4.51204V11.1179H8.07142V22.5715H8.06607ZM6.28906 9.55363C5.14898 9.55363 4.22836 8.62685 4.22836 7.49113C4.22836 6.35542 5.14898 5.42863 6.28906 5.42863C7.42378 5.42863 8.34975 6.35542 8.34975 7.49113C8.34975 8.6322 7.42913 9.55363 6.28906 9.55363V9.55363ZM21.3883 22.5715H17.8343V17.0001C17.8343 15.6715 17.8075 13.9626 15.9877 13.9626C14.1358 13.9626 13.8521 15.409 13.8521 16.9036V22.5715H10.298V11.1179H13.7076V12.6822H13.7557C14.2321 11.7822 15.3936 10.834 17.1224 10.834C20.7193 10.834 21.3883 13.2072 21.3883 16.2929V22.5715V22.5715Z" fill="#18EA39"/>
</g>
<defs>
<clipPath id="clip0_0_41">
<rect width="23.979" height="27.4286" fill="white" transform="translate(0.818848)"/>
</clipPath>
</defs>
</svg>
