<svg width="25" height="24" viewBox="0 0 25 24" fill="none" xmlns="http://www.w3.org/2000/svg">
<path d="M23.0851 0H2.52628C1.58425 0 0.818848 0.776786 0.818848 1.73036V22.2696C0.818848 23.2232 1.58425 24 2.52628 24H23.0851C24.0271 24 24.7978 23.2232 24.7978 22.2696V1.73036C24.7978 0.776786 24.0271 0 23.0851 0ZM8.06607 20.5714H4.51204V9.11786H8.07142V20.5714H8.06607ZM6.28906 7.55357C5.14898 7.55357 4.22836 6.62679 4.22836 5.49107C4.22836 4.35536 5.14898 3.42857 6.28906 3.42857C7.42378 3.42857 8.34975 4.35536 8.34975 5.49107C8.34975 6.63214 7.42913 7.55357 6.28906 7.55357V7.55357ZM21.3883 20.5714H17.8343V15C17.8343 13.6714 17.8075 11.9625 15.9877 11.9625C14.1358 11.9625 13.8521 13.4089 13.8521 14.9036V20.5714H10.298V9.11786H13.7076V10.6821H13.7557C14.2321 9.78214 15.3936 8.83393 17.1224 8.83393C20.7193 8.83393 21.3883 11.2071 21.3883 14.2929V20.5714V20.5714Z" fill="#18EA39"/>
</svg>
