<svg width="25" height="28" viewBox="0 0 25 28" fill="none" xmlns="http://www.w3.org/2000/svg">
<g clip-path="url(#clip0_0_43)">
<path d="M22.1928 2H3.3522C1.9338 2 0.78302 3.15179 0.78302 4.57143V23.4286C0.78302 24.8482 1.9338 26 3.3522 26H22.1928C23.6112 26 24.762 24.8482 24.762 23.4286V4.57143C24.762 3.15179 23.6112 2 22.1928 2ZM15.6254 22.5554C15.1758 22.6357 15.0098 22.3571 15.0098 22.1268C15.0098 21.8375 15.0206 20.3589 15.0206 19.1643C15.0206 18.3286 14.7422 17.7982 14.4157 17.5196C16.3961 17.3 18.4836 17.0268 18.4836 13.6036C18.4836 12.6286 18.1357 12.1411 17.5683 11.5143C17.6593 11.2839 17.9644 10.3357 17.4773 9.10357C16.7333 8.87321 15.0313 10.0625 15.0313 10.0625C14.3247 9.86429 13.5593 9.7625 12.8046 9.7625C12.0499 9.7625 11.2845 9.86429 10.578 10.0625C10.578 10.0625 8.87593 8.87321 8.13194 9.10357C7.64487 10.3304 7.94461 11.2786 8.04095 11.5143C7.47359 12.1411 7.20597 12.6286 7.20597 13.6036C7.20597 17.0107 9.20243 17.3 11.1828 17.5196C10.9259 17.75 10.6958 18.1464 10.6155 18.7143C10.107 18.9446 8.80635 19.3411 8.03024 17.9696C7.54317 17.1232 6.66537 17.0536 6.66537 17.0536C5.79827 17.0429 6.60649 17.6 6.60649 17.6C7.18456 17.8679 7.59134 18.8964 7.59134 18.8964C8.11053 20.4875 10.5941 19.9518 10.5941 19.9518C10.5941 20.6964 10.6048 21.9071 10.6048 22.1268C10.6048 22.3571 10.4442 22.6357 9.98924 22.5554C6.45662 21.3714 3.98379 18.0071 3.98379 14.075C3.98379 9.15714 7.74121 5.42321 12.6548 5.42321C17.5683 5.42321 21.5505 9.15714 21.5505 14.075C21.5559 18.0071 19.158 21.3768 15.6254 22.5554ZM10.3746 19.2821C10.2729 19.3036 10.1766 19.2607 10.1659 19.1911C10.1552 19.1107 10.2248 19.0411 10.3264 19.0196C10.4281 19.0089 10.5245 19.0518 10.5352 19.1214C10.5513 19.1911 10.4817 19.2607 10.3746 19.2821ZM9.86614 19.2339C9.86614 19.3036 9.78585 19.3625 9.6788 19.3625C9.56105 19.3732 9.48076 19.3143 9.48076 19.2339C9.48076 19.1643 9.56105 19.1054 9.6681 19.1054C9.76979 19.0946 9.86614 19.1536 9.86614 19.2339ZM9.13285 19.175C9.11144 19.2446 9.00439 19.2768 8.9134 19.2446C8.8117 19.2232 8.74212 19.1429 8.76353 19.0732C8.78494 19.0036 8.89199 18.9714 8.98298 18.9929C9.09003 19.025 9.15961 19.1054 9.13285 19.175ZM8.4745 18.8857C8.42633 18.9446 8.32463 18.9339 8.24434 18.8536C8.16406 18.7839 8.14265 18.6821 8.19617 18.6339C8.24434 18.575 8.34604 18.5857 8.42633 18.6661C8.49591 18.7357 8.52267 18.8429 8.4745 18.8857ZM7.98742 18.3982C7.93925 18.4304 7.84826 18.3982 7.78938 18.3179C7.73051 18.2375 7.73051 18.1464 7.78938 18.1089C7.84826 18.0607 7.93925 18.0982 7.98742 18.1786C8.0463 18.2589 8.0463 18.3554 7.98742 18.3982V18.3982ZM7.63952 17.8786C7.59134 17.9268 7.51106 17.9 7.45218 17.8464C7.3933 17.7768 7.3826 17.6964 7.43077 17.6589C7.47894 17.6107 7.55923 17.6375 7.6181 17.6911C7.67698 17.7607 7.68769 17.8411 7.63952 17.8786ZM7.2809 17.4821C7.25949 17.5304 7.18991 17.5411 7.13103 17.5036C7.06145 17.4714 7.02933 17.4125 7.05074 17.3643C7.07215 17.3321 7.13103 17.3161 7.20061 17.3429C7.2702 17.3804 7.30231 17.4393 7.2809 17.4821Z" fill="#18EA39"/>
</g>
<defs>
<clipPath id="clip0_0_43">
<rect width="23.979" height="27.4286" fill="white" transform="translate(0.78302)"/>
</clipPath>
</defs>
</svg>
