<svg width="25" height="28" viewBox="0 0 25 28" fill="none" xmlns="http://www.w3.org/2000/svg">
<g clip-path="url(#clip0_0_37)">
<path d="M22.2646 6.10352e-05H3.42391C2.74253 6.10352e-05 2.08905 0.270979 1.60723 0.753215C1.12542 1.23545 0.854736 1.8895 0.854736 2.57149L0.854736 21.4286C0.854736 22.1106 1.12542 22.7647 1.60723 23.2469C2.08905 23.7291 2.74253 24.0001 3.42391 24.0001H10.7702V15.8406H7.39811V12.0001H10.7702V9.07292C10.7702 5.74345 12.7506 3.90435 15.7838 3.90435C17.2365 3.90435 18.7555 4.16363 18.7555 4.16363V7.43149H17.0818C15.4327 7.43149 14.9183 8.45578 14.9183 9.50631V12.0001H18.5997L18.011 15.8406H14.9183V24.0001H22.2646C22.9459 24.0001 23.5994 23.7291 24.0812 23.2469C24.5631 22.7647 24.8337 22.1106 24.8337 21.4286V2.57149C24.8337 1.8895 24.5631 1.23545 24.0812 0.753215C23.5994 0.270979 22.9459 6.10352e-05 22.2646 6.10352e-05V6.10352e-05Z" fill="#18EA39"/>
</g>
<defs>
<clipPath id="clip0_0_37">
<rect width="23.979" height="27.4286" fill="white" transform="translate(0.854736)"/>
</clipPath>
</defs>
</svg>
