<svg width="25" height="28" viewBox="0 0 25 28" fill="none" xmlns="http://www.w3.org/2000/svg">
<g clip-path="url(#clip0_0_39)">
<path d="M22.1022 0H3.26156C1.84316 0 0.692383 1.15179 0.692383 2.57143V21.4286C0.692383 22.8482 1.84316 24 3.26156 24H22.1022C23.5206 24 24.6714 22.8482 24.6714 21.4286V2.57143C24.6714 1.15179 23.5206 0 22.1022 0ZM19.4849 8.50714C19.4956 8.65714 19.4956 8.8125 19.4956 8.9625C19.4956 13.6071 15.9629 18.9589 9.50788 18.9589C7.51676 18.9589 5.67017 18.3804 4.11795 17.3839C4.40163 17.4161 4.67461 17.4268 4.96364 17.4268C6.60685 17.4268 8.11624 16.8696 9.32054 15.9268C7.77903 15.8946 6.48374 14.8821 6.03949 13.4893C6.58008 13.5696 7.06716 13.5696 7.62381 13.425C6.01808 13.0982 4.81377 11.6839 4.81377 9.975V9.93214C5.27944 10.1946 5.82539 10.3554 6.3981 10.3768C5.91661 10.0562 5.52189 9.62136 5.24918 9.11098C4.97647 8.60059 4.83424 8.03057 4.83518 7.45179C4.83518 6.79821 5.00646 6.19821 5.31155 5.67857C7.04039 7.81071 9.63634 9.20357 12.5481 9.35357C12.0503 6.96964 13.8327 5.03571 15.9736 5.03571C16.9853 5.03571 17.8952 5.45893 18.5375 6.14464C19.3296 5.99464 20.0897 5.7 20.7641 5.29821C20.5018 6.1125 19.9505 6.79821 19.2226 7.23214C19.9291 7.15714 20.6142 6.95893 21.2458 6.68571C20.7694 7.3875 20.17 8.00893 19.4849 8.50714Z" fill="#18EA39"/>
</g>
<defs>
<clipPath id="clip0_0_39">
<rect width="23.979" height="27.4286" fill="white" transform="translate(0.890625)"/>
</clipPath>
</defs>
</svg>
