<svg width="686" height="606" viewBox="0 0 686 606" fill="none" xmlns="http://www.w3.org/2000/svg">
<path fill-rule="evenodd" clip-rule="evenodd" d="M347.892 53.2054C386.82 63.3363 424.996 70.5913 464.861 75.9621C521.306 83.5667 589.719 54.4102 632.858 91.5977C673.313 126.471 655.357 194.056 663.151 246.895C670.435 296.279 699.507 349.284 677.474 394.076C654.503 440.774 586.384 443.047 548.903 479.152C517.379 509.52 514.232 563.967 477.081 587.114C439.738 610.381 391.888 604.807 347.892 604.396C304.167 603.988 261.95 596.564 219.859 584.714C172.03 571.249 120.365 562.933 83.2525 529.894C44.6426 495.522 19.3843 446.851 8.28565 396.364C-2.78418 346.007 -6.28064 288.211 20.4289 244.11C47.3837 199.603 119.477 203.211 150.545 161.472C183.206 117.595 149.448 32.6669 197.403 6.3579C244.049 -19.2326 296.403 39.8057 347.892 53.2054Z" fill="url(#paint0_linear_0_15)" fill-opacity="0.84"/>
<defs>
<linearGradient id="paint0_linear_0_15" x1="171.5" y1="3.17486e-07" x2="513.5" y2="534" gradientUnits="userSpaceOnUse">
<stop offset="0.518939" stop-color="#07F72C"/>
<stop offset="1" stop-color="#18EA39" stop-opacity="0"/>
</linearGradient>
</defs>
</svg>
